<?xml version="1.0" standalone="no"?>
<!DOCTYPE svg PUBLIC "-//W3C//DTD SVG 20010904//EN"
 "http://www.w3.org/TR/2001/REC-SVG-20010904/DTD/svg10.dtd">
<svg version="1.0" xmlns="http://www.w3.org/2000/svg"
 width="500.000000pt" height="500.000000pt" viewBox="0 0 500.000000 500.000000"
 preserveAspectRatio="xMidYMid meet">

<g transform="translate(0.000000,500.000000) scale(0.100000,-0.100000)"
fill="#ffffff" stroke="none">
<path d="M2260 4660 c-1025 -125 -1817 -929 -1920 -1949 -40 -398 34 -798 215
-1166 174 -354 418 -634 745 -853 195 -130 504 -261 738 -312 611 -134 1250 5
1762 383 108 80 294 258 382 364 149 183 301 460 377 690 255 770 62 1612
-503 2192 -186 190 -345 307 -581 427 -208 105 -405 170 -639 210 -108 19
-466 27 -576 14z m458 -705 c230 -34 474 -136 662 -275 79 -59 223 -203 290
-290 315 -413 387 -963 190 -1447 -195 -478 -631 -820 -1145 -899 -173 -26
-412 -14 -582 30 -452 118 -837 460 -1002 891 -213 556 -84 1160 335 1579 219
218 503 362 809 411 111 18 326 18 443 0z"/>
</g>
<g transform="translate(0.000000,500.000000) scale(0.100000,-0.100000)"
fill="#ffffff" stroke="none">
<path d="M2330 3850 c-675 -83 -1191 -667 -1190 -1347 1 -435 196 -826 548
-1096 91 -70 309 -179 425 -212 291 -82 589 -72 863 31 241 90 456 251 609
454 373 501 367 1158 -16 1661 -190 250 -518 446 -832 499 -89 15 -319 20
-407 10z m478 -1040 c314 -168 572 -307 572 -310 0 -4 -563 -307 -1272 -683
l-128 -68 0 751 0 751 128 -68 c71 -37 386 -205 700 -373z"/>
</g>
</svg>
